<svg xmlns="http://www.w3.org/2000/svg" xmlns:xlink="http://www.w3.org/1999/xlink" width="1500" height="1500" viewBox="0 0 1500 1499.999933" preserveAspectRatio="xMidYMid meet"><defs><clipPath id="a"><rect x="0" width="1139" y="0" height="1500"/></clipPath><clipPath id="b"><path d="M 1182.160156 1047.890625 L 1431.140625 1047.890625 L 1431.140625 1296.871094 L 1182.160156 1296.871094 Z M 1182.160156 1047.890625 " clip-rule="nonzero"/></clipPath><clipPath id="c"><path d="M 1306.652344 1047.890625 C 1237.894531 1047.890625 1182.160156 1103.625 1182.160156 1172.378906 C 1182.160156 1241.132812 1237.894531 1296.871094 1306.652344 1296.871094 C 1375.40625 1296.871094 1431.140625 1241.132812 1431.140625 1172.378906 C 1431.140625 1103.625 1375.40625 1047.890625 1306.652344 1047.890625 Z M 1306.652344 1047.890625 " clip-rule="nonzero"/></clipPath><clipPath id="d"><path d="M 0.160156 0.890625 L 249.140625 0.890625 L 249.140625 249.871094 L 0.160156 249.871094 Z M 0.160156 0.890625 " clip-rule="nonzero"/></clipPath><clipPath id="e"><path d="M 124.652344 0.890625 C 55.894531 0.890625 0.160156 56.625 0.160156 125.378906 C 0.160156 194.132812 55.894531 249.871094 124.652344 249.871094 C 193.40625 249.871094 249.140625 194.132812 249.140625 125.378906 C 249.140625 56.625 193.40625 0.890625 124.652344 0.890625 Z M 124.652344 0.890625 " clip-rule="nonzero"/></clipPath><clipPath id="f"><rect x="0" width="250" y="0" height="250"/></clipPath></defs><g transform="matrix(1, 0, 0, 1, 61, 0.000000000000112861)"><g clip-path="url(#a)"><g fill="#ffffff" fill-opacity="1"><g transform="translate(1.224994, 1289.811596)"><g><path d="M 258.375 0 L 51.671875 0 L 51.671875 -930.15625 C 51.671875 -958.570312 61.789062 -982.898438 82.03125 -1003.140625 C 102.269531 -1023.378906 126.601562 -1033.5 155.03125 -1033.5 C 183.445312 -1033.5 207.988281 -1023.164062 228.65625 -1002.5 L 878.46875 -352.6875 L 878.46875 -1033.5 L 1085.171875 -1033.5 L 1085.171875 -103.34375 C 1085.171875 -74.925781 1075.050781 -50.597656 1054.8125 -30.359375 C 1034.570312 -10.117188 1010.242188 0 981.828125 0 C 953.398438 0 928.851562 -10.332031 908.1875 -31 L 258.375 -680.8125 Z M 258.375 0 "/></g></g></g></g></g><g clip-path="url(#b)"><g clip-path="url(#c)"><g transform="matrix(1, 0, 0, 1, 1182, 1047)"><g clip-path="url(#f)"><g clip-path="url(#d)"><g clip-path="url(#e)"><path fill="#ffffff" d="M 0.160156 0.890625 L 249.140625 0.890625 L 249.140625 249.871094 L 0.160156 249.871094 Z M 0.160156 0.890625 " fill-opacity="1" fill-rule="nonzero"/></g></g></g></g></g></g></svg>
