<svg xmlns="http://www.w3.org/2000/svg" viewBox="120 607 1265 292" preserveAspectRatio="xMidYMid meet"><g fill="#ffffff" fill-opacity="1"><g transform="translate(134.015647, 889.434743)"><g><path d="M 70 0 L 14 0 L 14 -251.984375 C 14 -259.679688 16.738281 -266.269531 22.21875 -271.75 C 27.707031 -277.238281 34.300781 -279.984375 42 -279.984375 C 49.695312 -279.984375 56.347656 -277.1875 61.953125 -271.59375 L 237.984375 -95.546875 L 237.984375 -279.984375 L 293.984375 -279.984375 L 293.984375 -28 C 293.984375 -20.300781 291.238281 -13.707031 285.75 -8.21875 C 280.269531 -2.738281 273.679688 0 265.984375 0 C 258.285156 0 251.632812 -2.800781 246.03125 -8.40625 L 70 -184.4375 Z"/></g></g></g><g fill="#ffffff" fill-opacity="1"><g transform="translate(442.00408, 889.434743)"><g><path d="M 237.984375 0 L 70 0 C 59.726562 0 50.332031 -2.503906 41.8125 -7.515625 C 33.300781 -12.535156 26.535156 -19.300781 21.515625 -27.8125 C 16.503906 -36.332031 14 -45.726562 14 -56 L 14 -223.984375 C 14 -234.253906 16.503906 -243.644531 21.515625 -252.15625 C 26.535156 -260.675781 33.300781 -267.441406 41.8125 -272.453125 C 50.332031 -277.472656 59.726562 -279.984375 70 -279.984375 L 237.984375 -279.984375 C 248.253906 -279.984375 257.644531 -277.472656 266.15625 -272.453125 C 274.675781 -267.441406 281.441406 -260.675781 286.453125 -252.15625 C 291.472656 -243.644531 293.984375 -234.253906 293.984375 -223.984375 L 293.984375 -56 C 293.984375 -45.96875 291.472656 -36.691406 286.453125 -28.171875 C 281.441406 -19.660156 274.734375 -12.835938 266.328125 -7.703125 C 257.929688 -2.566406 248.484375 0 237.984375 0 Z M 70 -223.984375 L 70 -56 L 237.984375 -56 L 237.984375 -223.984375 Z"/></g></g></g><g fill="#ffffff" fill-opacity="1"><g transform="translate(749.992514, 889.434743)"><g><path d="M 237.984375 0 L 70 0 C 59.726562 0 50.332031 -2.503906 41.8125 -7.515625 C 33.300781 -12.535156 26.535156 -19.300781 21.515625 -27.8125 C 16.503906 -36.332031 14 -45.726562 14 -56 L 14 -279.984375 L 70 -279.984375 L 70 -56 L 237.984375 -56 L 237.984375 -279.984375 L 293.984375 -279.984375 L 293.984375 -56 C 293.984375 -45.726562 291.472656 -36.332031 286.453125 -27.8125 C 281.441406 -19.300781 274.675781 -12.535156 266.15625 -7.515625 C 257.644531 -2.503906 248.253906 0 237.984375 0 Z"/></g></g></g><g fill="#ffffff" fill-opacity="1"><g transform="translate(1057.98097, 889.434743)"><g><path d="M 293.984375 -279.984375 L 293.984375 -223.984375 L 70 -223.984375 L 70 -168 L 237.984375 -168 C 248.253906 -168 257.644531 -165.488281 266.15625 -160.46875 C 274.675781 -155.445312 281.441406 -148.675781 286.453125 -140.15625 C 291.472656 -131.644531 293.984375 -122.257812 293.984375 -112 L 293.984375 -56 C 293.984375 -45.726562 291.472656 -36.332031 286.453125 -27.8125 C 281.441406 -19.300781 274.675781 -12.535156 266.15625 -7.515625 C 257.644531 -2.503906 248.253906 0 237.984375 0 L 14 0 L 14 -56 L 237.984375 -56 L 237.984375 -112 L 70 -112 C 59.726562 -112 50.332031 -114.503906 41.8125 -119.515625 C 33.300781 -124.535156 26.535156 -131.300781 21.515625 -139.8125 C 16.503906 -148.332031 14 -157.726562 14 -168 L 14 -223.984375 C 14 -234.253906 16.503906 -243.644531 21.515625 -252.15625 C 26.535156 -260.675781 33.300781 -267.441406 41.8125 -272.453125 C 50.332031 -277.472656 59.726562 -279.984375 70 -279.984375 Z"/></g></g></g></svg>
